# Alias OBJ Model File
# Exported from SketchUp, (c) 2000-2012 Trimble Navigation Limited
# File units = meters

mtllib 5.mtl

g Mesh1 G_5_1 Model

usemtl FrontColor
v -0.0499708 -0.02 -0.141046
vt -0.297706 7.26696
vn 0 -1 -0
v -0.0260459 -0.02 -0.110024
vt -1.23963 6.41288
v -0.0499708 -0.02 -0.00508221
vt -0.297706 3.52367
f 1/1/1 2/2/1 3/3/1

v 0.0513069 -0.02 -0.141046
vt -4.28502 7.26696
f 2/2/1 1/1/1 4/4/1

usemtl BackColor
vn -0 1 0
f 3/3/2 2/2/2 1/1/2

usemtl FrontColor
v -0.0337316 -0.02 -0.00924798
vt -0.937042 3.63836
f 3/3/1 2/2/1 5/5/1

usemtl BackColor
f 5/5/2 2/2/2 3/3/2

usemtl FrontColor
v -0.0260459 -0.02 -0.0398265
vt -1.23963 4.48023
f 6/6/1 5/5/1 2/2/1

v -0.0135257 -0.02 -0.0114638
vt -1.73255 3.69937
f 5/5/1 6/6/1 7/7/1

usemtl BackColor
f 7/7/2 6/6/2 5/5/2

usemtl FrontColor
v -0.0172446 -0.02 -0.0408901
vt -1.58614 4.50952
f 7/7/1 6/6/1 8/8/1

usemtl BackColor
f 8/8/2 6/6/2 7/7/2

usemtl FrontColor
v -0.0260459 0.015 -0.0398265
vt -1.61249 9.84252
vn -0.0589929 0 -0.998258
vt -1.96024 0
vn -0.0404129 0 -0.999183
vt -1.61249 0
f 9/9/3 8/10/4 6/11/3

v -0.0172446 0.015 -0.0408901
vt -1.96024 9.84252
f 8/10/4 9/9/3 10/12/4

usemtl BackColor
vn 0.0589929 -0 0.998258
vn 0.0404129 -0 0.999183
f 6/11/5 8/10/6 9/9/5

f 10/12/6 9/9/5 8/10/6

usemtl FrontColor
vt 1.23963 4.48023
vn 0 1 -0
v -0.0135257 0.015 -0.0114638
vt 1.73255 3.69937
vt 1.58614 4.50952
f 9/13/7 11/14/7 10/15/7

v -0.0337316 0.015 -0.00924798
vt 0.937042 3.63836
f 11/14/7 9/13/7 12/16/7

usemtl BackColor
vn -0 -1 0
f 12/16/8 9/13/8 11/14/8

usemtl FrontColor
v -0.0260459 0.015 -0.110024
vt 1.23963 6.41288
f 13/17/7 12/16/7 9/13/7

v -0.0499708 0.015 -0.141046
vt 0.297706 7.26696
f 14/18/7 12/16/7 13/17/7

v -0.0499708 0.015 -0.00508221
vt 0.297706 3.52367
f 12/16/7 14/18/7 15/19/7

usemtl BackColor
f 15/19/8 14/18/8 12/16/8

usemtl FrontColor
vt -7.26696 9.84252
vn -1 0 -0
vt -3.52367 0
vt -3.52367 9.84252
f 14/20/9 3/21/9 15/22/9

vt -7.26696 0
f 3/21/9 14/20/9 1/23/9

usemtl BackColor
vn 1 -0 0
f 15/22/10 3/21/10 14/20/10

usemtl FrontColor
vt 0.915206 0
vn 0.124471 0 0.992223
vt 1.56475 9.84252
vn 0.0889515 0 0.996036
vt 0.915206 9.84252
f 3/24/11 12/25/12 15/26/11

vt 1.56475 0
f 12/25/12 3/24/11 5/27/12

usemtl BackColor
vn -0.0889515 -0 -0.996036
vn -0.124471 -0 -0.992223
f 5/27/13 3/24/14 12/25/13

f 15/26/14 12/25/13 3/24/14

usemtl FrontColor
vt 1.2125 0
vt 2.01034 9.84252
vn -0.0119303 0 0.999929
vt 1.2125 9.84252
f 5/28/12 11/29/15 12/30/12

vt 2.01034 0
f 11/29/15 5/28/12 7/31/15

usemtl BackColor
vn 0.0119303 -0 -0.999929
f 7/31/16 5/28/13 11/29/16

f 12/30/13 11/29/16 5/28/13

usemtl FrontColor
vt 1.31343 0
v 0.00376713 0.015 -0.00871618
vt 1.99844 9.84252
vn -0.204271 0 0.978914
vt 1.31343 9.84252
f 7/32/15 16/33/17 11/34/15

v 0.00376713 -0.02 -0.00871618
vt 1.99844 0
f 16/33/17 7/32/15 17/35/17

usemtl BackColor
vn 0.204271 -0 -0.978914
f 17/35/18 7/32/16 16/33/18

usemtl FrontColor
v -0.00931096 -0.02 -0.0412447
vt -1.89849 4.51928
vt -2.41337 3.62372
f 7/7/1 18/36/1 17/37/1

f 7/7/1 8/8/1 18/36/1

usemtl BackColor
f 18/36/2 8/8/2 7/7/2

usemtl FrontColor
vt -1.72622 9.84252
vt -2.03872 0
vn 0.0233903 0 -0.999726
vt -1.72622 0
f 10/38/4 18/39/19 8/40/4

v -0.00931096 0.015 -0.0412447
vt -2.03872 9.84252
f 18/39/19 10/38/4 19/41/19

usemtl BackColor
vn -0.0233903 -0 0.999726
f 8/40/6 18/39/20 10/38/6

f 19/41/20 10/38/6 18/39/20

usemtl FrontColor
vt 1.89849 4.51928
f 10/15/7 11/14/7 19/42/7

usemtl BackColor
f 10/15/8 11/14/8 9/13/8

f 19/42/8 11/14/8 10/15/8

usemtl FrontColor
vt 2.41337 3.62372
f 19/42/7 11/14/7 16/43/7

usemtl BackColor
f 16/43/8 11/14/8 19/42/8

f 11/34/16 16/33/18 7/32/16

usemtl FrontColor
v 0.0146139 0.015 -0.0378766
vt 2.84041 4.42655
f 19/42/7 16/43/7 20/44/7

usemtl BackColor
f 20/44/8 16/43/8 19/42/8

usemtl FrontColor
v 0.0168452 0.015 0.000767602
vt 2.92826 3.36262
f 20/44/7 16/43/7 21/45/7

usemtl BackColor
f 21/45/8 16/43/8 20/44/8

usemtl FrontColor
vt 0.5135 0
vt 1.09081 9.84252
vn -0.507684 0 0.861543
vt 0.5135 9.84252
f 17/46/17 21/47/21 16/48/17

v 0.0168452 -0.02 0.000767602
vt 1.09081 0
f 21/47/21 17/46/17 22/49/21

usemtl BackColor
vn 0.507684 -0 -0.861543
f 22/49/22 17/46/18 21/47/22

usemtl FrontColor
v 0.0146139 -0.02 -0.0378766
vt -2.84041 4.42655
vt -2.92826 3.36262
f 17/37/1 23/50/1 22/51/1

f 17/37/1 18/36/1 23/50/1

usemtl BackColor
f 17/37/2 18/36/2 7/7/2

f 23/50/2 18/36/2 17/37/2

usemtl FrontColor
vt -1.44659 9.84252
vt -2.39307 0
vn 0.156209 0 -0.987724
vt -1.44659 0
f 19/52/19 23/53/23 18/54/19

vt -2.39307 9.84252
f 23/53/23 19/52/19 20/55/23

usemtl BackColor
vn -0.156209 -0 0.987724
f 18/54/20 23/53/24 19/52/20

f 20/55/24 19/52/20 23/53/24

usemtl FrontColor
vt -1.1673 9.84252
v 0.024221 -0.02 -0.0329131
vt -1.56946 0
vn 0.319979 0 -0.947425
vt -1.1673 0
f 20/56/23 24/57/25 23/58/23

v 0.024221 0.015 -0.0329131
vt -1.56946 9.84252
f 24/57/25 20/56/23 25/59/25

usemtl BackColor
vn -0.319979 -0 0.947425
f 23/58/24 24/57/26 20/56/24

usemtl FrontColor
vt -3.21864 4.2899
f 22/51/1 23/50/1 24/60/1

usemtl BackColor
f 22/51/2 23/50/2 17/37/2

f 24/60/2 23/50/2 22/51/2

usemtl FrontColor
v 0.0245929 -0.02 0.015658
vt -3.23328 2.95266
f 22/51/1 24/60/1 26/61/1

usemtl BackColor
f 26/61/2 24/60/2 22/51/2

usemtl FrontColor
v 0.0334562 -0.02 -0.0247588
vt -3.58224 4.0654
f 26/61/1 24/60/1 27/62/1

usemtl BackColor
f 27/62/2 24/60/2 26/61/2

usemtl FrontColor
vt -0.484865 9.84252
vt -0.912182 0
vn 0.477025 0 -0.878889
vt -0.484865 0
f 25/63/25 27/64/27 24/65/25

v 0.0334562 0.015 -0.0247588
vt -0.912182 9.84252
f 27/64/27 25/63/25 28/66/27

usemtl BackColor
vn -0.477025 -0 0.878889
f 24/65/26 27/64/28 25/63/26

f 28/66/28 25/63/26 27/64/28

usemtl FrontColor
vt 3.21864 4.2899
v 0.0245929 0.015 0.015658
vt 3.23328 2.95266
vt 3.58224 4.0654
f 25/67/7 29/68/7 28/69/7

f 25/67/7 21/45/7 29/68/7

f 20/44/7 21/45/7 25/67/7

usemtl BackColor
f 25/67/8 21/45/8 20/44/8

f 29/68/8 21/45/8 25/67/8

usemtl FrontColor
vt -0.949789 9.84252
vt -0.438804 0
vn -0.854608 0 0.519273
vt -0.438804 9.84252
f 21/70/21 26/71/29 29/72/29

vt -0.949789 0
f 26/71/29 21/70/21 22/73/21

usemtl BackColor
vn 0.854608 -0 -0.519273
f 29/72/30 26/71/30 21/70/22

usemtl FrontColor
v 0.0272581 -0.02 0.0387027
vt -1.74245 0
vn -0.999846 0 0.017532
vt -2.38552 9.84252
vt -2.38552 0
f 30/74/31 29/75/29 26/76/29

v 0.0272581 0.015 0.0387027
vt -1.74245 9.84252
f 29/75/29 30/74/31 31/77/31

usemtl BackColor
vn 0.999846 -0 -0.017532
f 31/77/32 30/74/32 29/75/30

usemtl FrontColor
v 0.0248408 -0.02 0.0633428
vt -2.07447 0
vn -0.903361 0 -0.428881
vt -2.75949 9.84252
vt -2.75949 0
f 32/78/33 31/79/31 30/80/31

v 0.0248408 0.015 0.0633428
vt -2.07447 9.84252
f 31/79/31 32/78/33 33/81/33

usemtl BackColor
vn 0.903361 -0 0.428881
f 33/81/34 32/78/34 31/79/32

usemtl FrontColor
v 0.0178369 -0.02 0.0816013
vt -2.42408 0
vn -0.665932 0 -0.746012
vt -2.99743 9.84252
vt -2.99743 0
f 34/82/35 33/83/33 32/84/33

v 0.0178369 0.015 0.0816013
vt -2.42408 9.84252
f 33/83/33 34/82/35 35/85/35

usemtl BackColor
vn 0.665932 -0 0.746012
f 35/85/36 34/82/36 33/83/34

usemtl FrontColor
vt -2.95399 0
v 0.0122586 0.015 0.0889358
vt -2.65565 9.84252
vn -0.44339 0 -0.896329
vt -2.95399 9.84252
f 34/86/35 36/87/37 35/88/35

v 0.0122586 -0.02 0.0889358
vt -2.65565 0
f 36/87/37 34/86/35 37/89/37

usemtl BackColor
vn 0.44339 -0 0.896329
f 37/89/38 34/86/36 36/87/38

usemtl FrontColor
v 0.0167832 -0.02 0.121486
vt -2.92582 0.0390434
vt -2.74768 0.935212
vt -2.9673 1.13714
f 38/90/1 37/91/1 34/92/1

v 0.00568856 -0.02 0.0939214
vt -2.48902 0.79795
f 38/90/1 39/93/1 37/91/1

v 0.00449542 -0.02 0.126671
vt -2.44205 -0.103709
f 40/94/1 39/93/1 38/90/1

v -0.0088151 -0.02 0.0977326
vt -1.91801 0.693021
f 40/94/1 41/95/1 39/93/1

v -0.00918699 -0.02 0.1284
vt -1.90337 -0.151293
f 42/96/1 41/95/1 40/94/1

v -0.022451 -0.02 0.0956941
vt -1.38116 0.749146
f 42/96/1 43/97/1 41/95/1

v -0.0352812 -0.02 0.124234
vt -0.876037 -0.0366032
f 44/98/1 43/97/1 42/96/1

v -0.035839 -0.02 0.0899329
vt -0.854075 0.90776
f 44/98/1 45/99/1 43/97/1

v -0.0476155 -0.02 0.0827536
vt -0.390434 1.10542
f 44/98/1 46/100/1 45/99/1

v -0.055797 -0.02 0.0759288
vt -0.068326 1.29331
f 44/98/1 47/101/1 46/100/1

v -0.0575325 -0.02 0.113332
vt 0 0.263543
f 48/102/1 47/101/1 44/98/1

v -0.0575325 -0.02 0.0759288
vt 0 1.29331
f 47/101/1 48/102/1 49/103/1

usemtl BackColor
f 49/103/2 48/102/2 47/101/2

usemtl FrontColor
vt -0.263543 0
v -0.0575325 0.015 0.0759288
vt -1.29331 9.84252
vt -1.29331 0
f 48/104/9 50/105/9 49/106/9

v -0.0575325 0.015 0.113332
vt -0.263543 9.84252
f 50/105/9 48/104/9 51/107/9

usemtl BackColor
f 51/107/10 48/104/10 50/105/10

usemtl FrontColor
vt -0.0854202 0
vn -0.232999 0 0.972477
v -0.0352812 0.015 0.124234
vt 0.840608 9.84252
vn -0.154947 0 0.987923
vt -0.0854202 9.84252
f 48/108/39 52/109/40 51/110/39

vt 0.840608 0
f 52/109/40 48/108/39 44/111/40

usemtl BackColor
vn 0.154947 -0 -0.987923
vn 0.232999 -0 -0.972477
f 44/111/41 48/108/42 52/109/41

f 44/98/2 47/101/2 48/102/2

f 46/100/2 47/101/2 44/98/2

usemtl FrontColor
v -0.055797 0.015 0.0759288
vt 0.592645 9.84252
vn 0.377708 0 -0.925925
vt 0.219739 0
vn 0.33144 0 -0.943476
vt 0.592645 0
f 53/112/43 46/113/44 47/114/43

v -0.0476155 0.015 0.0827536
vt 0.219739 9.84252
f 46/113/44 53/112/43 54/115/44

usemtl BackColor
vn -0.377708 -0 0.925925
vn -0.33144 -0 0.943476
f 47/114/45 46/113/46 53/112/45

f 54/115/46 53/112/45 46/113/46

usemtl FrontColor
vt 0.068326 1.29331
vt 0.876037 -0.0366032
vt 0.390434 1.10542
f 53/116/7 52/117/7 54/118/7

f 50/103/7 52/117/7 53/116/7

f 52/117/7 50/103/7 51/102/7

usemtl BackColor
f 51/102/8 50/103/8 52/117/8

f 53/116/8 52/117/8 50/103/8

f 54/118/8 52/117/8 53/116/8

usemtl FrontColor
v -0.035839 0.015 0.0899329
vt 0.854075 0.90776
f 54/118/7 52/117/7 55/119/7

usemtl BackColor
f 55/119/8 52/117/8 54/118/8

usemtl FrontColor
v -0.022451 0.015 0.0956941
vt 1.38116 0.749146
f 55/119/7 52/117/7 56/120/7

usemtl BackColor
f 56/120/8 52/117/8 55/119/8

usemtl FrontColor
v -0.00918699 0.015 0.1284
vt 1.90337 -0.151293
f 56/120/7 52/117/7 57/121/7

usemtl BackColor
f 57/121/8 52/117/8 56/120/8

usemtl FrontColor
vt 0.87469 0
vt 1.9084 9.84252
vn -0.00806741 0 0.999967
vt 0.87469 9.84252
f 44/122/40 57/123/47 52/124/40

vt 1.9084 0
f 57/123/47 44/122/40 42/125/47

usemtl BackColor
vn 0.00806741 -0 -0.999967
f 42/125/48 44/122/41 57/123/48

f 42/96/2 43/97/2 44/98/2

f 41/95/2 43/97/2 42/96/2

usemtl FrontColor
vt -1.29578 9.84252
vn 0.139106 0 -0.990277
vt -1.83555 0
vn -0.0271247 0 -0.999632
vt -1.29578 0
f 56/126/49 41/127/50 43/128/49

v -0.0088151 0.015 0.0977326
vt -1.83555 9.84252
f 41/127/50 56/126/49 58/129/50

usemtl BackColor
vn -0.139106 -0 0.990277
vn 0.0271247 -0 0.999632
f 43/128/51 41/127/52 56/126/51

f 58/129/52 56/126/51 41/127/52

usemtl FrontColor
vt 1.91801 0.693021
f 56/120/7 57/121/7 58/130/7

usemtl BackColor
f 58/130/8 57/121/8 56/120/8

usemtl FrontColor
v 0.00449542 0.015 0.126671
vt 2.44205 -0.103709
f 58/130/7 57/121/7 59/131/7

usemtl BackColor
f 59/131/8 57/121/8 58/130/8

usemtl FrontColor
vt 1.88267 0
vt 2.42345 9.84252
vn 0.131541 0 0.991311
vt 1.88267 9.84252
f 42/132/47 59/133/53 57/134/47

vt 2.42345 0
f 59/133/53 42/132/47 40/135/53

usemtl BackColor
vn -0.131541 -0 -0.991311
f 40/135/54 42/132/48 59/133/54

f 40/94/2 41/95/2 42/96/2

f 39/93/2 41/95/2 40/94/2

usemtl FrontColor
vt -2.01168 9.84252
vt -2.59225 0
vn -0.236392 0 -0.971658
vt -2.01168 0
f 58/136/50 39/137/55 41/138/50

v 0.00568856 0.015 0.0939214
vt -2.59225 9.84252
f 39/137/55 58/136/50 60/139/55

usemtl BackColor
vn 0.236392 -0 0.971658
f 41/138/52 39/137/56 58/136/52

f 60/139/56 58/136/52 39/137/56

usemtl FrontColor
vt 2.48902 0.79795
f 58/130/7 59/131/7 60/140/7

usemtl BackColor
f 60/140/8 59/131/8 58/130/8

usemtl FrontColor
v 0.0167832 0.015 0.121486
vt 2.92582 0.0390434
f 60/140/7 59/131/7 61/141/7

usemtl BackColor
f 61/141/8 59/131/8 60/140/8

usemtl FrontColor
vt 2.31285 0
vt 2.81724 9.84252
vn 0.276615 0 0.960981
vt 2.31285 9.84252
f 40/142/53 61/143/57 59/144/53

vt 2.81724 0
f 61/143/57 40/142/53 38/145/57

usemtl BackColor
vn -0.276615 -0 -0.960981
f 38/145/58 40/142/54 61/143/58

f 38/90/2 39/93/2 40/94/2

f 37/91/2 39/93/2 38/90/2

usemtl FrontColor
vt -2.57267 9.84252
vt -2.86549 0
vt -2.57267 0
f 60/146/55 37/147/37 39/148/55

vt -2.86549 9.84252
f 37/147/37 60/146/55 36/149/37

usemtl BackColor
f 39/148/56 37/147/38 60/146/56

f 36/149/38 60/146/56 37/147/38

usemtl FrontColor
vt 2.74768 0.935212
f 60/140/7 61/141/7 36/150/7

usemtl BackColor
f 36/150/8 61/141/8 60/140/8

usemtl FrontColor
vt 2.9673 1.13714
f 36/150/7 61/141/7 35/151/7

usemtl BackColor
f 35/151/8 61/141/8 36/150/8

usemtl FrontColor
v 0.0274286 0.015 0.113288
vt 3.34492 0.264763
f 35/151/7 61/141/7 62/152/7

usemtl BackColor
f 62/152/8 61/141/8 35/151/8

usemtl FrontColor
vt 2.59449 0
vt 3.07052 9.84252
vn 0.433229 0 0.901284
vt 2.59449 9.84252
f 38/153/57 62/154/59 61/155/57

v 0.0274286 -0.02 0.113288
vt 3.07052 0
f 62/154/59 38/153/57 63/156/59

usemtl BackColor
vn -0.433229 -0 -0.901284
f 63/156/60 38/153/58 62/154/60

usemtl FrontColor
vt -3.34492 0.264763
f 38/90/1 34/92/1 63/157/1

usemtl BackColor
f 34/92/2 37/91/2 38/90/2

f 63/157/2 34/92/2 38/90/2

usemtl FrontColor
vt -3.24305 1.63982
f 63/157/1 34/92/1 32/158/1

usemtl BackColor
f 32/158/2 34/92/2 63/157/2

f 32/84/34 33/83/34 34/82/36

usemtl FrontColor
vt -3.33821 2.3182
f 63/157/1 32/158/1 30/159/1

usemtl BackColor
f 30/159/2 32/158/2 63/157/2

f 30/80/32 31/79/32 32/78/34

usemtl FrontColor
f 30/159/1 27/62/1 63/157/1

f 26/61/1 27/62/1 30/159/1

usemtl BackColor
f 30/159/2 27/62/2 26/61/2

f 63/157/2 27/62/2 30/159/2

usemtl FrontColor
v 0.0361834 -0.02 0.102519
vt -3.6896 0.561249
f 63/157/1 27/62/1 64/160/1

usemtl BackColor
f 64/160/2 27/62/2 63/157/2

usemtl FrontColor
v 0.0415603 -0.02 -0.013591
vt -3.90129 3.75793
f 64/160/1 27/62/1 65/161/1

usemtl BackColor
f 65/161/2 27/62/2 64/160/2

usemtl FrontColor
vt 0.241558 9.84252
vt -0.201538 0
vn 0.653153 0 -0.757226
vt 0.241558 0
f 28/162/27 65/163/61 27/164/27

v 0.0415603 0.015 -0.013591
vt -0.201538 9.84252
f 65/163/61 28/162/27 66/165/61

usemtl BackColor
vn -0.653153 -0 0.757226
f 27/164/28 65/163/62 28/162/28

f 66/165/62 28/162/28 65/163/62

usemtl FrontColor
v 0.0361834 0.015 0.102519
vt 3.6896 0.561249
vt 3.90129 3.75793
f 28/69/7 67/166/7 66/167/7

f 28/69/7 62/152/7 67/166/7

vt 3.33821 2.3182
f 28/69/7 31/168/7 62/152/7

f 28/69/7 29/68/7 31/168/7

usemtl BackColor
f 28/69/8 29/68/8 25/67/8

f 31/168/8 29/68/8 28/69/8

f 62/152/8 31/168/8 28/69/8

usemtl FrontColor
vt 3.24305 1.63982
f 33/169/7 62/152/7 31/168/7

f 35/151/7 62/152/7 33/169/7

usemtl BackColor
f 33/169/8 62/152/8 35/151/8

f 31/168/8 62/152/8 33/169/8

f 67/166/8 62/152/8 28/69/8

usemtl FrontColor
vt 2.70851 0
vt 3.16316 9.84252
vn 0.598191 0 0.801354
vt 2.70851 9.84252
f 63/170/59 67/171/63 62/172/59

vt 3.16316 0
f 67/171/63 63/170/59 64/173/63

usemtl BackColor
vn -0.598191 -0 -0.801354
f 64/173/64 63/170/60 67/171/64

f 62/172/60 67/171/64 63/170/60

usemtl FrontColor
v 0.0430169 -0.02 0.089534
vt 3.11445 0
vn 0.753872 0 0.657021
vt 2.66704 9.84252
vt 2.66704 0
f 68/174/65 67/175/63 64/176/63

v 0.0430169 0.015 0.089534
vt 3.11445 9.84252
f 67/175/63 68/174/65 69/177/65

usemtl BackColor
vn -0.753872 -0 -0.657021
f 64/176/64 67/175/64 68/174/66

f 69/177/66 68/174/66 67/175/64

usemtl FrontColor
v 0.0481459 -0.02 0.0743334
vt 3.01241 0
vn 0.882691 0 0.469955
vt 2.54774 9.84252
vt 2.54774 0
f 70/178/67 69/179/65 68/180/65

v 0.0481459 0.015 0.0743334
vt 3.01241 9.84252
f 69/179/65 70/178/67 71/181/67

usemtl BackColor
vn -0.882691 -0 -0.469955
f 68/180/66 69/179/66 70/178/68

f 71/181/68 70/178/68 69/179/66

usemtl FrontColor
v 0.0513534 -0.02 0.0573158
vt 2.85917 0
vn 0.970165 0 0.242446
vt 2.37392 9.84252
vt 2.37392 0
f 72/182/69 71/183/67 70/184/67

v 0.0513534 0.015 0.0573158
vt 2.85917 9.84252
f 71/183/67 72/182/69 73/185/69

usemtl BackColor
vn -0.970165 -0 -0.242446
f 70/184/68 71/183/68 72/182/70

f 73/185/70 72/182/70 71/183/68

usemtl FrontColor
v 0.0524226 -0.02 0.03888
vt 2.66319 0
vn 0.999999 0 0.001531
vt 2.15388 9.84252
vt 2.15388 0
f 74/186/71 73/187/69 72/188/69

v 0.0524226 0.015 0.03888
vt 2.66319 9.84252
f 73/187/69 74/186/71 75/189/71

usemtl BackColor
vn -0.999999 -0 -0.001531
f 72/188/70 73/187/70 74/186/72

f 75/189/72 74/186/72 73/187/70

usemtl FrontColor
v 0.0511984 -0.02 0.0172091
vt 2.55585 0
vn 0.964613 0 -0.263669
vt 1.95727 9.84252
vt 1.95727 0
f 76/190/73 75/191/71 74/192/71

v 0.0511984 0.015 0.0172091
vt 2.55585 9.84252
f 75/191/71 76/190/73 77/193/73

usemtl BackColor
vn -0.964613 -0 0.263669
f 74/192/72 75/191/72 76/190/74

f 77/193/74 76/190/74 75/191/72

usemtl FrontColor
v 0.047526 -0.02 5.8534e-05
vt 2.02292 0
vn 0.837623 0 -0.546249
vt 1.5291 9.84252
vt 1.5291 0
f 78/194/75 77/195/73 76/196/73

v 0.047526 0.015 5.8534e-05
vt 2.02292 9.84252
f 77/195/73 78/194/75 79/197/75

usemtl BackColor
vn -0.837623 -0 0.546249
f 76/196/74 77/195/74 78/194/76

f 79/197/76 78/194/76 77/195/74

usemtl FrontColor
vt 1.11904 0
vt 0.675888 9.84252
vt 0.675888 0
f 65/198/61 79/199/75 78/200/75

vt 1.11904 9.84252
f 79/199/75 65/198/61 66/201/61

usemtl BackColor
f 78/200/76 79/199/76 65/198/62

f 66/201/62 65/198/62 79/199/76

usemtl FrontColor
vt 3.95864 0.918741
vt 4.13616 3.38214
f 66/167/7 69/202/7 79/203/7

f 66/167/7 67/166/7 69/202/7

usemtl BackColor
f 66/167/8 67/166/8 28/69/8

f 69/202/8 67/166/8 66/167/8

f 79/203/8 69/202/8 66/167/8

usemtl FrontColor
vt 4.16057 1.33724
f 79/203/7 69/202/7 71/204/7

usemtl BackColor
f 71/204/8 69/202/8 79/203/8

usemtl FrontColor
vt 4.28075 2.90996
f 79/203/7 71/204/7 77/205/7

usemtl BackColor
f 77/205/8 71/204/8 79/203/8

usemtl FrontColor
vt 4.28685 1.80576
f 77/205/7 71/204/7 73/206/7

usemtl BackColor
f 73/206/8 71/204/8 77/205/8

usemtl FrontColor
vt 4.32894 2.31332
f 77/205/7 73/206/7 75/207/7

usemtl BackColor
f 75/207/8 73/206/8 77/205/8

usemtl FrontColor
vt -3.95864 0.918741
vt -4.13616 3.38214
f 68/208/1 65/161/1 78/209/1

f 64/160/1 65/161/1 68/208/1

usemtl BackColor
f 68/208/2 65/161/2 64/160/2

f 78/209/2 65/161/2 68/208/2

usemtl FrontColor
vt -4.16057 1.33724
f 68/208/1 78/209/1 70/210/1

usemtl BackColor
f 70/210/2 78/209/2 68/208/2

usemtl FrontColor
vt -4.28075 2.90996
f 70/210/1 78/209/1 76/211/1

usemtl BackColor
f 76/211/2 78/209/2 70/210/2

usemtl FrontColor
vt -4.28685 1.80576
f 70/210/1 76/211/1 72/212/1

usemtl BackColor
f 72/212/2 76/211/2 70/210/2

usemtl FrontColor
vt -4.32894 2.31332
f 72/212/1 76/211/1 74/213/1

usemtl BackColor
f 74/213/2 76/211/2 72/212/2

f 26/76/30 29/75/30 30/74/32

f 61/155/58 62/154/60 38/153/58

f 35/88/36 36/87/38 34/86/36

f 59/144/54 61/143/58 40/142/54

f 57/134/48 59/133/54 42/132/48

usemtl FrontColor
vt -1.1067 0
vt -0.556266 9.84252
vn 0.245637 0 -0.969362
vt -1.1067 9.84252
f 43/214/49 55/215/77 56/216/49

vt -0.556266 0
f 55/215/77 43/214/49 45/217/77

usemtl BackColor
vn -0.245637 -0 0.969362
f 45/217/78 43/214/51 55/215/78

f 43/97/2 45/99/2 44/98/2

f 45/99/2 46/100/2 44/98/2

usemtl FrontColor
vt 0.0743482 9.84252
vt -0.429667 0
vt 0.0743482 0
f 54/218/44 45/219/77 46/220/44

vt -0.429667 9.84252
f 45/219/77 54/218/44 55/221/77

usemtl BackColor
f 46/220/46 45/219/78 54/218/46

f 55/221/78 54/218/46 45/219/78

f 56/216/51 55/215/78 43/214/51

f 52/124/41 57/123/48 44/122/41

usemtl FrontColor
vt -0.068326 0
vn 0 0 -1
vt 0 9.84252
vt -0.068326 9.84252
f 47/222/79 50/223/79 53/224/79

vt 0 0
f 50/223/79 47/222/79 49/225/79

usemtl BackColor
vn -0 -0 1
f 49/225/80 47/222/80 50/223/80

f 53/224/80 50/223/80 47/222/80

f 49/106/10 50/105/10 48/104/10

f 51/110/42 52/109/41 48/108/42

f 22/73/22 21/70/22 26/71/30

f 25/59/26 20/56/24 24/57/26

f 16/48/18 21/47/22 17/46/18

f 1/23/10 14/20/10 3/21/10

usemtl FrontColor
vt -0.297706 9.84252
vt -4.28502 0
vt -0.297706 0
f 14/226/79 4/227/79 1/228/79

v 0.0513069 0.015 -0.141046
vt -4.28502 9.84252
f 4/227/79 14/226/79 80/229/79

usemtl BackColor
f 1/228/80 4/227/80 14/226/80

f 4/4/2 1/1/2 2/2/2

usemtl FrontColor
v 0.0513069 -0.02 -0.110024
vt -4.28502 6.41288
f 2/2/1 4/4/1 81/230/1

usemtl BackColor
f 81/230/2 4/4/2 2/2/2

usemtl FrontColor
vt 7.26696 0
vn 1 0 -0
v 0.0513069 0.015 -0.110024
vt 6.41288 9.84252
vt 6.41288 0
f 4/231/81 82/232/81 81/233/81

vt 7.26696 9.84252
f 82/232/81 4/231/81 80/234/81

usemtl BackColor
vn -1 -0 0
f 81/233/82 82/232/82 4/231/82

usemtl FrontColor
vt 4.28502 9.84252
vn 0 0 1
vt 1.23963 0
vt 4.28502 0
f 82/235/83 2/236/83 81/237/83

vt 1.23963 9.84252
f 2/236/83 82/235/83 13/238/83

usemtl BackColor
vn -0 -0 -1
f 81/237/84 2/236/84 82/235/84

f 13/238/84 82/235/84 2/236/84

usemtl FrontColor
vt 4.28502 7.26696
vt 4.28502 6.41288
f 80/239/7 13/17/7 82/240/7

f 14/18/7 13/17/7 80/239/7

usemtl BackColor
f 13/17/8 12/16/8 14/18/8

f 9/13/8 12/16/8 13/17/8

usemtl FrontColor
vt 4.48023 9.84252
f 9/241/81 2/233/81 13/232/81

vt 4.48023 0
f 2/233/81 9/241/81 6/242/81

usemtl BackColor
f 6/242/82 9/241/82 2/233/82

f 13/232/82 2/233/82 9/241/82

f 2/2/2 5/5/2 6/6/2

f 80/239/8 13/17/8 14/18/8

f 82/240/8 13/17/8 80/239/8

f 80/234/82 4/231/82 82/232/82

f 80/229/80 14/226/80 4/227/80

g Mesh2 G_5_1 Model

l 74 72

l 76 74

l 78 76

l 65 78

l 27 65

l 24 27

l 23 24

l 18 23

l 8 18

l 6 8

l 2 6

l 81 2

l 4 81

l 1 4

l 3 1

l 5 3

l 7 5

l 17 7

l 22 17

l 26 22

l 30 26

l 32 30

l 34 32

l 37 34

l 39 37

l 41 39

l 43 41

l 45 43

l 46 45

l 47 46

l 49 47

l 48 49

l 44 48

l 42 44

l 40 42

l 38 40

l 63 38

l 64 63

l 68 64

l 70 68

l 72 70

l 48 51

l 52 51

l 57 52

l 59 57

l 61 59

l 62 61

l 67 62

l 69 67

l 71 69

l 73 71

l 75 73

l 77 75

l 79 77

l 66 79

l 28 66

l 25 28

l 20 25

l 19 20

l 10 19

l 9 10

l 13 9

l 82 13

l 80 82

l 14 80

l 15 14

l 12 15

l 11 12

l 16 11

l 21 16

l 29 21

l 31 29

l 33 31

l 35 33

l 36 35

l 60 36

l 58 60

l 56 58

l 55 56

l 54 55

l 53 54

l 50 53

l 51 50

l 49 50

l 47 53

l 3 15

l 1 14

l 4 80

l 81 82

l 2 13

l 6 9

